<svg version="1.1" viewBox="0.0 80.0 860.0 220.0" fill="none" stroke="none" stroke-linecap="square" stroke-miterlimit="10" xmlns:xlink="http://www.w3.org/1999/xlink" xmlns="http://www.w3.org/2000/svg"><clipPath id="g29a4b74f11a_0_0.0"><path d="m0 0l960.0 0l0 540.0l-960.0 0l0 -540.0z" clip-rule="nonzero"/></clipPath><g clip-path="url(#g29a4b74f11a_0_0.0)"><path fill="#000000" fill-opacity="0.0" d="m0 0l960.0 0l0 540.0l-960.0 0z" fill-rule="evenodd"/><path fill="#000000" fill-opacity="0.0" d="m310.17322 173.4962l0 0c0 -3.9457855 3.1987 -7.1445007 7.1445007 -7.1445007l287.47476 0c1.8948364 0 3.7120972 0.7527313 5.051941 2.092575c1.3398438 1.339859 2.0925903 3.1570892 2.0925903 5.0519257l0 28.577148c0 3.9458008 -3.1987305 7.1445007 -7.1445312 7.1445007l-287.47476 0c-3.9458008 0 -7.1445007 -3.1987 -7.1445007 -7.1445007z" fill-rule="evenodd"/><path stroke="#1640d6" stroke-width="3.0" stroke-linejoin="round" stroke-linecap="butt" d="m310.17322 173.4962l0 0c0 -3.9457855 3.1987 -7.1445007 7.1445007 -7.1445007l287.47476 0c1.8948364 0 3.7120972 0.7527313 5.051941 2.092575c1.3398438 1.339859 2.0925903 3.1570892 2.0925903 5.0519257l0 28.577148c0 3.9458008 -3.1987305 7.1445007 -7.1445312 7.1445007l-287.47476 0c-3.9458008 0 -7.1445007 -3.1987 -7.1445007 -7.1445007z" fill-rule="evenodd"/><path fill="#000000" fill-opacity="0.0" d="m461.0551 166.3517l0 42.92914" fill-rule="evenodd"/><path stroke="#1640d6" stroke-width="3.0" stroke-linejoin="round" stroke-linecap="butt" d="m461.0551 166.3517l0 42.92914" fill-rule="evenodd"/><path fill="#000000" fill-opacity="0.0" d="m385.0866 166.30446l0 42.960632" fill-rule="evenodd"/><path stroke="#1640d6" stroke-width="3.0" stroke-linejoin="round" stroke-linecap="butt" d="m385.0866 166.30446l0 42.960632" fill-rule="evenodd"/><path fill="#000000" fill-opacity="0.0" d="m541.6352 166.29659l0 42.04724" fill-rule="evenodd"/><path stroke="#1640d6" stroke-width="3.0" stroke-linejoin="round" stroke-linecap="butt" d="m541.6352 166.29659l0 42.04724" fill-rule="evenodd"/><path fill="#000000" fill-opacity="0.0" d="m541.6352 209.28084l134.51965 0l0 20.566925l-134.51965 0z" fill-rule="evenodd"/><path fill="#595959" d="m551.8383 225.96085q-0.3125 0 -0.484375 -0.171875q-0.15625 -0.171875 -0.15625 -0.453125l0 -4.40625q0 -0.296875 0.15625 -0.453125q0.171875 -0.171875 0.46875 -0.171875q0.296875 0 0.453125 0.171875q0.171875 0.15625 0.171875 0.453125l0 3.984375l2.140625 0q0.25 0 0.390625 0.140625q0.140625 0.125 0.140625 0.375q0 0.265625 -0.140625 0.40625q-0.140625 0.125 -0.390625 0.125l-2.75 0zm5.8408203 0.09375q-0.6875 0 -1.1875 -0.25q-0.5 -0.265625 -0.78125 -0.71875q-0.265625 -0.46875 -0.265625 -1.078125q0 -0.609375 0.25 -1.0625q0.265625 -0.46875 0.71875 -0.734375q0.46875 -0.265625 1.046875 -0.265625q0.4375 0 0.78125 0.140625q0.34375 0.140625 0.578125 0.40625q0.25 0.265625 0.375 0.640625q0.140625 0.359375 0.140625 0.8125q0 0.15625 -0.109375 0.234375q-0.09375 0.078125 -0.265625 0.078125l-2.515625 0l0 -0.625l2.015625 0l-0.125 0.109375q0 -0.328125 -0.109375 -0.546875q-0.09375 -0.21875 -0.28125 -0.328125q-0.171875 -0.109375 -0.421875 -0.109375q-0.296875 0 -0.515625 0.140625q-0.203125 0.125 -0.3125 0.390625q-0.109375 0.25 -0.109375 0.609375l0 0.0625q0 0.609375 0.28125 0.90625q0.28125 0.28125 0.84375 0.28125q0.1875 0 0.4375 -0.046875q0.25 -0.046875 0.46875 -0.15625q0.171875 -0.09375 0.3125 -0.0625q0.15625 0.03125 0.234375 0.140625q0.078125 0.09375 0.09375 0.234375q0.015625 0.140625 -0.0625 0.28125q-0.078125 0.125 -0.234375 0.203125q-0.28125 0.15625 -0.625 0.234375q-0.328125 0.078125 -0.65625 0.078125zm3.6887817 0q-0.4375 0 -0.78125 -0.171875q-0.34375 -0.171875 -0.546875 -0.453125q-0.1875 -0.296875 -0.1875 -0.65625q0 -0.421875 0.21875 -0.671875q0.234375 -0.265625 0.734375 -0.375q0.515625 -0.109375 1.34375 -0.109375l0.421875 0l0 0.625l-0.421875 0q-0.40625 0 -0.65625 0.046875q-0.25 0.046875 -0.359375 0.15625q-0.109375 0.09375 -0.109375 0.28125q0 0.21875 0.15625 0.375q0.15625 0.140625 0.453125 0.140625q0.234375 0 0.40625 -0.109375q0.1875 -0.109375 0.28125 -0.296875q0.109375 -0.1875 0.109375 -0.421875l0 -0.921875q0 -0.359375 -0.15625 -0.5q-0.15625 -0.15625 -0.546875 -0.15625q-0.21875 0 -0.46875 0.0625q-0.25 0.046875 -0.546875 0.171875q-0.1875 0.078125 -0.328125 0.03125q-0.125 -0.046875 -0.203125 -0.15625q-0.0625 -0.125 -0.0625 -0.265625q0 -0.140625 0.078125 -0.265625q0.078125 -0.140625 0.265625 -0.203125q0.375 -0.140625 0.703125 -0.203125q0.328125 -0.0625 0.609375 -0.0625q0.625 0 1.015625 0.1875q0.390625 0.1875 0.59375 0.5625q0.203125 0.359375 0.203125 0.953125l0 1.765625q0 0.296875 -0.140625 0.46875q-0.140625 0.15625 -0.421875 0.15625q-0.265625 0 -0.421875 -0.15625q-0.140625 -0.171875 -0.140625 -0.46875l0 -0.296875l0.046875 0.046875q-0.046875 0.28125 -0.203125 0.484375q-0.15625 0.1875 -0.390625 0.296875q-0.234375 0.109375 -0.546875 0.109375zm4.6278076 0q-0.359375 0 -0.734375 -0.078125q-0.359375 -0.0625 -0.671875 -0.203125q-0.15625 -0.078125 -0.234375 -0.203125q-0.0625 -0.125 -0.0625 -0.25q0.015625 -0.140625 0.09375 -0.234375q0.078125 -0.109375 0.203125 -0.140625q0.125 -0.046875 0.28125 0.03125q0.328125 0.125 0.59375 0.1875q0.28125 0.046875 0.53125 0.046875q0.34375 0 0.5 -0.09375q0.15625 -0.109375 0.15625 -0.296875q0 -0.15625 -0.109375 -0.234375q-0.09375 -0.078125 -0.296875 -0.109375l-0.828125 -0.15625q-0.5 -0.09375 -0.765625 -0.359375q-0.265625 -0.28125 -0.265625 -0.71875q0 -0.390625 0.21875 -0.6875q0.21875 -0.296875 0.609375 -0.453125q0.40625 -0.15625 0.90625 -0.15625q0.359375 0 0.65625 0.078125q0.3125 0.0625 0.59375 0.203125q0.140625 0.078125 0.203125 0.203125q0.0625 0.109375 0.03125 0.234375q-0.015625 0.125 -0.09375 0.234375q-0.078125 0.109375 -0.203125 0.140625q-0.125 0.03125 -0.28125 -0.03125q-0.25 -0.125 -0.46875 -0.171875q-0.21875 -0.0625 -0.421875 -0.0625q-0.359375 0 -0.515625 0.125q-0.15625 0.109375 -0.15625 0.28125q0 0.140625 0.078125 0.234375q0.09375 0.09375 0.296875 0.125l0.828125 0.15625q0.53125 0.078125 0.796875 0.34375q0.28125 0.265625 0.28125 0.703125q0 0.609375 -0.484375 0.96875q-0.46875 0.34375 -1.265625 0.34375zm4.317871 0q-0.546875 0 -0.921875 -0.1875q-0.375 -0.1875 -0.5625 -0.53125q-0.171875 -0.359375 -0.171875 -0.890625l0 -1.515625l-0.328125 0q-0.234375 0 -0.359375 -0.109375q-0.125 -0.125 -0.125 -0.328125q0 -0.234375 0.125 -0.34375q0.125 -0.109375 0.359375 -0.109375l0.328125 0l0 -0.609375q0 -0.3125 0.15625 -0.46875q0.171875 -0.15625 0.453125 -0.15625q0.296875 0 0.4375 0.15625q0.15625 0.15625 0.15625 0.46875l0 0.609375l0.765625 0q0.21875 0 0.34375 0.109375q0.125 0.109375 0.125 0.34375q0 0.203125 -0.125 0.328125q-0.125 0.109375 -0.34375 0.109375l-0.765625 0l0 1.46875q0 0.328125 0.15625 0.5q0.15625 0.171875 0.5 0.171875q0.125 0 0.21875 -0.015625q0.109375 -0.03125 0.203125 -0.046875q0.109375 0 0.171875 0.078125q0.078125 0.0625 0.078125 0.328125q0 0.1875 -0.0625 0.328125q-0.0625 0.140625 -0.21875 0.203125q-0.109375 0.046875 -0.296875 0.078125q-0.171875 0.03125 -0.296875 0.03125zm5.651428 0q-0.328125 0 -0.6875 -0.0625q-0.34375 -0.046875 -0.65625 -0.140625q-0.3125 -0.09375 -0.5625 -0.25q-0.171875 -0.09375 -0.25 -0.25q-0.0625 -0.15625 -0.046875 -0.3125q0.015625 -0.15625 0.109375 -0.28125q0.109375 -0.125 0.265625 -0.15625q0.15625 -0.046875 0.34375 0.0625q0.328125 0.171875 0.71875 0.265625q0.390625 0.09375 0.765625 0.09375q0.59375 0 0.828125 -0.171875q0.25 -0.1875 0.25 -0.46875q0 -0.234375 -0.171875 -0.359375q-0.171875 -0.140625 -0.609375 -0.234375l-0.90625 -0.203125q-0.765625 -0.15625 -1.140625 -0.53125q-0.375 -0.390625 -0.375 -1.03125q0 -0.40625 0.171875 -0.71875q0.171875 -0.328125 0.46875 -0.5625q0.3125 -0.25 0.71875 -0.375q0.421875 -0.140625 0.9375 -0.140625q0.4375 0 0.875 0.109375q0.4375 0.109375 0.765625 0.328125q0.15625 0.09375 0.203125 0.25q0.0625 0.140625 0.046875 0.296875q-0.015625 0.140625 -0.125 0.25q-0.09375 0.109375 -0.25 0.140625q-0.140625 0.03125 -0.359375 -0.078125q-0.265625 -0.125 -0.5625 -0.1875q-0.296875 -0.078125 -0.609375 -0.078125q-0.328125 0 -0.578125 0.09375q-0.234375 0.09375 -0.359375 0.25q-0.109375 0.15625 -0.109375 0.375q0 0.21875 0.15625 0.375q0.171875 0.140625 0.59375 0.21875l0.90625 0.203125q0.78125 0.15625 1.15625 0.53125q0.390625 0.375 0.390625 0.984375q0 0.40625 -0.171875 0.734375q-0.15625 0.3125 -0.46875 0.546875q-0.296875 0.234375 -0.71875 0.359375q-0.421875 0.125 -0.953125 0.125zm3.6279297 -0.03125q-0.296875 0 -0.453125 -0.171875q-0.15625 -0.171875 -0.15625 -0.484375l0 -2.734375q0 -0.3125 0.15625 -0.484375q0.15625 -0.171875 0.453125 -0.171875q0.28125 0 0.4375 0.171875q0.15625 0.171875 0.15625 0.484375l0 2.734375q0 0.3125 -0.15625 0.484375q-0.140625 0.171875 -0.4375 0.171875zm0 -4.703125q-0.34375 0 -0.53125 -0.15625q-0.171875 -0.15625 -0.171875 -0.453125q0 -0.296875 0.171875 -0.453125q0.1875 -0.15625 0.53125 -0.15625q0.328125 0 0.5 0.15625q0.1875 0.15625 0.1875 0.453125q0 0.296875 -0.1875 0.453125q-0.171875 0.15625 -0.5 0.15625zm3.425171 6.171875q-0.4375 0 -0.84375 -0.078125q-0.390625 -0.0625 -0.6875 -0.21875q-0.1875 -0.078125 -0.265625 -0.203125q-0.078125 -0.125 -0.0625 -0.28125q0.015625 -0.140625 0.09375 -0.25q0.09375 -0.109375 0.21875 -0.15625q0.125 -0.046875 0.265625 0.03125q0.359375 0.15625 0.65625 0.203125q0.296875 0.046875 0.515625 0.046875q0.515625 0 0.765625 -0.234375q0.25 -0.234375 0.25 -0.703125l0 -0.609375l0.078125 0q-0.125 0.359375 -0.5 0.59375q-0.375 0.234375 -0.828125 0.234375q-0.53125 0 -0.921875 -0.234375q-0.390625 -0.25 -0.609375 -0.6875q-0.21875 -0.453125 -0.21875 -1.046875q0 -0.4375 0.125 -0.796875q0.125 -0.359375 0.34375 -0.609375q0.234375 -0.265625 0.5625 -0.40625q0.328125 -0.140625 0.71875 -0.140625q0.46875 0 0.828125 0.234375q0.375 0.234375 0.5 0.59375l-0.09375 0.265625l0 -0.46875q0 -0.296875 0.15625 -0.4375q0.15625 -0.15625 0.453125 -0.15625q0.28125 0 0.4375 0.15625q0.15625 0.140625 0.15625 0.4375l0 2.9375q0 0.984375 -0.546875 1.484375q-0.53125 0.5 -1.546875 0.5zm0.015625 -2.53125q0.265625 0 0.46875 -0.125q0.203125 -0.125 0.3125 -0.359375q0.109375 -0.25 0.109375 -0.578125q0 -0.484375 -0.25 -0.765625q-0.234375 -0.28125 -0.640625 -0.28125q-0.265625 0 -0.46875 0.125q-0.203125 0.125 -0.3125 0.359375q-0.109375 0.234375 -0.109375 0.5625q0 0.5 0.234375 0.78125q0.25 0.28125 0.65625 0.28125zm3.623108 1.078125q-0.296875 0 -0.453125 -0.15625q-0.15625 -0.171875 -0.15625 -0.46875l0 -2.84375q0 -0.296875 0.15625 -0.4375q0.15625 -0.15625 0.4375 -0.15625q0.28125 0 0.421875 0.15625q0.15625 0.140625 0.15625 0.4375l0 0.46875l-0.078125 -0.265625q0.1875 -0.390625 0.546875 -0.609375q0.359375 -0.21875 0.828125 -0.21875q0.46875 0 0.765625 0.1875q0.3125 0.1875 0.453125 0.546875q0.15625 0.359375 0.15625 0.921875l0 1.8125q0 0.296875 -0.15625 0.46875q-0.140625 0.15625 -0.4375 0.15625q-0.296875 0 -0.453125 -0.15625q-0.15625 -0.171875 -0.15625 -0.46875l0 -1.75q0 -0.421875 -0.15625 -0.59375q-0.140625 -0.1875 -0.4375 -0.1875q-0.390625 0 -0.625 0.25q-0.21875 0.234375 -0.21875 0.640625l0 1.640625q0 0.625 -0.59375 0.625zm4.7598877 -0.015625q-0.296875 0 -0.453125 -0.171875q-0.15625 -0.171875 -0.15625 -0.484375l0 -2.734375q0 -0.3125 0.15625 -0.484375q0.15625 -0.171875 0.453125 -0.171875q0.28125 0 0.4375 0.171875q0.15625 0.171875 0.15625 0.484375l0 2.734375q0 0.3125 -0.15625 0.484375q-0.140625 0.171875 -0.4375 0.171875zm0 -4.703125q-0.34375 0 -0.53125 -0.15625q-0.171875 -0.15625 -0.171875 -0.453125q0 -0.296875 0.171875 -0.453125q0.1875 -0.15625 0.53125 -0.15625q0.328125 0 0.5 0.15625q0.1875 0.15625 0.1875 0.453125q0 0.296875 -0.1875 0.453125q-0.171875 0.15625 -0.5 0.15625zm2.440857 4.71875q-0.296875 0 -0.453125 -0.15625q-0.15625 -0.171875 -0.15625 -0.46875l0 -2.484375l-0.28125 0q-0.234375 0 -0.359375 -0.109375q-0.109375 -0.125 -0.109375 -0.328125q0 -0.234375 0.109375 -0.34375q0.125 -0.109375 0.359375 -0.109375l0.640625 0l-0.359375 0.3125l0 -0.25q0 -0.84375 0.40625 -1.265625q0.421875 -0.4375 1.25 -0.515625l0.21875 -0.03125q0.234375 -0.015625 0.359375 0.0625q0.140625 0.078125 0.171875 0.203125q0.046875 0.125 0.015625 0.265625q-0.015625 0.125 -0.09375 0.234375q-0.078125 0.09375 -0.21875 0.109375l-0.15625 0.015625q-0.40625 0.015625 -0.578125 0.203125q-0.171875 0.171875 -0.171875 0.515625l0 0.265625l-0.140625 -0.125l2.234375 0q0.296875 0 0.4375 0.171875q0.15625 0.171875 0.15625 0.484375l0 2.671875q0 0.3125 -0.15625 0.484375q-0.140625 0.171875 -0.4375 0.171875q-0.28125 0 -0.453125 -0.171875q-0.15625 -0.171875 -0.15625 -0.484375l0 -2.4375l-1.484375 0l0 2.484375q0 0.625 -0.59375 0.625zm2.71875 -4.71875q-0.328125 0 -0.5 -0.15625q-0.171875 -0.15625 -0.171875 -0.453125q0 -0.296875 0.171875 -0.453125q0.171875 -0.15625 0.5 -0.15625q0.3125 0 0.484375 0.15625q0.171875 0.15625 0.171875 0.453125q0 0.296875 -0.171875 0.453125q-0.171875 0.15625 -0.484375 0.15625zm3.4171753 4.734375q-0.640625 0 -1.125 -0.25q-0.46875 -0.265625 -0.734375 -0.71875q-0.25 -0.46875 -0.25 -1.09375q0 -0.484375 0.140625 -0.859375q0.15625 -0.375 0.421875 -0.640625q0.28125 -0.265625 0.671875 -0.40625q0.390625 -0.140625 0.875 -0.140625q0.25 0 0.53125 0.0625q0.28125 0.0625 0.546875 0.203125q0.15625 0.078125 0.21875 0.21875q0.0625 0.125 0.046875 0.265625q-0.015625 0.140625 -0.109375 0.25q-0.078125 0.109375 -0.203125 0.140625q-0.125 0.03125 -0.28125 -0.046875q-0.15625 -0.09375 -0.328125 -0.125q-0.15625 -0.046875 -0.296875 -0.046875q-0.25 0 -0.4375 0.078125q-0.171875 0.078125 -0.296875 0.21875q-0.125 0.140625 -0.203125 0.359375q-0.0625 0.203125 -0.0625 0.46875q0 0.53125 0.265625 0.828125q0.265625 0.296875 0.734375 0.296875q0.140625 0 0.296875 -0.03125q0.15625 -0.03125 0.328125 -0.125q0.15625 -0.078125 0.28125 -0.03125q0.125 0.03125 0.203125 0.140625q0.078125 0.109375 0.09375 0.25q0.015625 0.140625 -0.046875 0.28125q-0.0625 0.125 -0.21875 0.1875q-0.265625 0.140625 -0.546875 0.203125q-0.265625 0.0625 -0.515625 0.0625zm3.2298584 0q-0.4375 0 -0.78125 -0.171875q-0.34375 -0.171875 -0.546875 -0.453125q-0.1875 -0.296875 -0.1875 -0.65625q0 -0.421875 0.21875 -0.671875q0.234375 -0.265625 0.734375 -0.375q0.515625 -0.109375 1.34375 -0.109375l0.421875 0l0 0.625l-0.421875 0q-0.40625 0 -0.65625 0.046875q-0.25 0.046875 -0.359375 0.15625q-0.109375 0.09375 -0.109375 0.28125q0 0.21875 0.15625 0.375q0.15625 0.140625 0.453125 0.140625q0.234375 0 0.40625 -0.109375q0.1875 -0.109375 0.28125 -0.296875q0.109375 -0.1875 0.109375 -0.421875l0 -0.921875q0 -0.359375 -0.15625 -0.5q-0.15625 -0.15625 -0.546875 -0.15625q-0.21875 0 -0.46875 0.0625q-0.25 0.046875 -0.546875 0.171875q-0.1875 0.078125 -0.328125 0.03125q-0.125 -0.046875 -0.203125 -0.15625q-0.0625 -0.125 -0.0625 -0.265625q0 -0.140625 0.078125 -0.265625q0.078125 -0.140625 0.265625 -0.203125q0.375 -0.140625 0.703125 -0.203125q0.328125 -0.0625 0.609375 -0.0625q0.625 0 1.015625 0.1875q0.390625 0.1875 0.59375 0.5625q0.203125 0.359375 0.203125 0.953125l0 1.765625q0 0.296875 -0.140625 0.46875q-0.140625 0.15625 -0.421875 0.15625q-0.265625 0 -0.421875 -0.15625q-0.140625 -0.171875 -0.140625 -0.46875l0 -0.296875l0.046875 0.046875q-0.046875 0.28125 -0.203125 0.484375q-0.15625 0.1875 -0.390625 0.296875q-0.234375 0.109375 -0.546875 0.109375zm3.7371826 -0.015625q-0.296875 0 -0.453125 -0.15625q-0.15625 -0.171875 -0.15625 -0.46875l0 -2.84375q0 -0.296875 0.15625 -0.4375q0.15625 -0.15625 0.4375 -0.15625q0.28125 0 0.421875 0.15625q0.15625 0.140625 0.15625 0.4375l0 0.46875l-0.078125 -0.265625q0.1875 -0.390625 0.546875 -0.609375q0.359375 -0.21875 0.828125 -0.21875q0.46875 0 0.765625 0.1875q0.3125 0.1875 0.453125 0.546875q0.15625 0.359375 0.15625 0.921875l0 1.8125q0 0.296875 -0.15625 0.46875q-0.140625 0.15625 -0.4375 0.15625q-0.296875 0 -0.453125 -0.15625q-0.15625 -0.171875 -0.15625 -0.46875l0 -1.75q0 -0.421875 -0.15625 -0.59375q-0.140625 -0.1875 -0.4375 -0.1875q-0.390625 0 -0.625 0.25q-0.21875 0.234375 -0.21875 0.640625l0 1.640625q0 0.625 -0.59375 0.625zm6.0724487 0.015625q-0.546875 0 -0.921875 -0.1875q-0.375 -0.1875 -0.5625 -0.53125q-0.171875 -0.359375 -0.171875 -0.890625l0 -1.515625l-0.328125 0q-0.234375 0 -0.359375 -0.109375q-0.125 -0.125 -0.125 -0.328125q0 -0.234375 0.125 -0.34375q0.125 -0.109375 0.359375 -0.109375l0.328125 0l0 -0.609375q0 -0.3125 0.15625 -0.46875q0.171875 -0.15625 0.453125 -0.15625q0.296875 0 0.4375 0.15625q0.15625 0.15625 0.15625 0.46875l0 0.609375l0.765625 0q0.21875 0 0.34375 0.109375q0.125 0.109375 0.125 0.34375q0 0.203125 -0.125 0.328125q-0.125 0.109375 -0.34375 0.109375l-0.765625 0l0 1.46875q0 0.328125 0.15625 0.5q0.15625 0.171875 0.5 0.171875q0.125 0 0.21875 -0.015625q0.109375 -0.03125 0.203125 -0.046875q0.109375 0 0.171875 0.078125q0.078125 0.0625 0.078125 0.328125q0 0.1875 -0.0625 0.328125q-0.0625 0.140625 -0.21875 0.203125q-0.109375 0.046875 -0.296875 0.078125q-0.171875 0.03125 -0.296875 0.03125zm4.292053 -0.09375q-0.3125 0 -0.484375 -0.171875q-0.171875 -0.171875 -0.171875 -0.46875l0 -4.34375q0 -0.3125 0.171875 -0.484375q0.171875 -0.171875 0.484375 -0.171875l1.9375 0q0.59375 0 1.015625 0.1875q0.421875 0.171875 0.640625 0.5q0.234375 0.328125 0.234375 0.78125q0 0.5 -0.296875 0.859375q-0.28125 0.34375 -0.796875 0.46875l0 -0.125q0.59375 0.09375 0.90625 0.453125q0.328125 0.359375 0.328125 0.921875q0 0.75 -0.515625 1.171875q-0.515625 0.421875 -1.4375 0.421875l-2.015625 0zm0.53125 -0.921875l1.328125 0q0.46875 0 0.6875 -0.1875q0.234375 -0.1875 0.234375 -0.546875q0 -0.375 -0.234375 -0.5625q-0.21875 -0.1875 -0.6875 -0.1875l-1.328125 0l0 1.484375zm0 -2.390625l1.1875 0q0.46875 0 0.6875 -0.171875q0.21875 -0.1875 0.21875 -0.546875q0 -0.34375 -0.21875 -0.515625q-0.21875 -0.171875 -0.6875 -0.171875l-1.1875 0l0 1.40625zm4.8880005 3.375q-0.296875 0 -0.453125 -0.171875q-0.15625 -0.171875 -0.15625 -0.484375l0 -2.734375q0 -0.3125 0.15625 -0.484375q0.15625 -0.171875 0.453125 -0.171875q0.28125 0 0.4375 0.171875q0.15625 0.171875 0.15625 0.484375l0 2.734375q0 0.3125 -0.15625 0.484375q-0.140625 0.171875 -0.4375 0.171875zm0 -4.703125q-0.34375 0 -0.53125 -0.15625q-0.171875 -0.15625 -0.171875 -0.453125q0 -0.296875 0.171875 -0.453125q0.1875 -0.15625 0.53125 -0.15625q0.328125 0 0.5 0.15625q0.1875 0.15625 0.1875 0.453125q0 0.296875 -0.1875 0.453125q-0.171875 0.15625 -0.5 0.15625zm3.456482 4.734375q-0.546875 0 -0.921875 -0.1875q-0.375 -0.1875 -0.5625 -0.53125q-0.171875 -0.359375 -0.171875 -0.890625l0 -1.515625l-0.328125 0q-0.234375 0 -0.359375 -0.109375q-0.125 -0.125 -0.125 -0.328125q0 -0.234375 0.125 -0.34375q0.125 -0.109375 0.359375 -0.109375l0.328125 0l0 -0.609375q0 -0.3125 0.15625 -0.46875q0.171875 -0.15625 0.453125 -0.15625q0.296875 0 0.4375 0.15625q0.15625 0.15625 0.15625 0.46875l0 0.609375l0.765625 0q0.21875 0 0.34375 0.109375q0.125 0.109375 0.125 0.34375q0 0.203125 -0.125 0.328125q-0.125 0.109375 -0.34375 0.109375l-0.765625 0l0 1.46875q0 0.328125 0.15625 0.5q0.15625 0.171875 0.5 0.171875q0.125 0 0.21875 -0.015625q0.109375 -0.03125 0.203125 -0.046875q0.109375 0 0.171875 0.078125q0.078125 0.0625 0.078125 0.328125q0 0.1875 -0.0625 0.328125q-0.0625 0.140625 -0.21875 0.203125q-0.109375 0.046875 -0.296875 0.078125q-0.171875 0.03125 -0.296875 0.03125z" fill-rule="nonzero"/><path fill="#000000" fill-opacity="0.0" d="m300.4882 209.28084l134.51968 0l0 20.566925l-134.51968 0z" fill-rule="evenodd"/><path fill="#595959" d="m310.6288 226.03897q-0.265625 0 -0.421875 -0.15625q-0.140625 -0.15625 -0.140625 -0.421875l0 -4.640625q0 -0.265625 0.15625 -0.421875q0.15625 -0.15625 0.4375 -0.15625q0.234375 0 0.375 0.09375q0.140625 0.09375 0.265625 0.328125l1.84375 3.375l-0.265625 0l1.84375 -3.375q0.125 -0.234375 0.25 -0.328125q0.140625 -0.09375 0.375 -0.09375q0.28125 0 0.421875 0.15625q0.15625 0.15625 0.15625 0.421875l0 4.640625q0 0.265625 -0.15625 0.421875q-0.140625 0.15625 -0.40625 0.15625q-0.28125 0 -0.4375 -0.15625q-0.140625 -0.15625 -0.140625 -0.421875l0 -3.25l0.1875 0l-1.5 2.671875q-0.09375 0.15625 -0.203125 0.234375q-0.09375 0.0625 -0.28125 0.0625q-0.171875 0 -0.28125 -0.078125q-0.109375 -0.078125 -0.203125 -0.21875l-1.5 -2.671875l0.1875 0l0 3.25q0 0.265625 -0.140625 0.421875q-0.140625 0.15625 -0.421875 0.15625zm8.226654 0.015625q-0.640625 0 -1.109375 -0.25q-0.46875 -0.25 -0.734375 -0.71875q-0.25 -0.46875 -0.25 -1.09375q0 -0.46875 0.140625 -0.84375q0.15625 -0.375 0.421875 -0.640625q0.28125 -0.28125 0.65625 -0.421875q0.390625 -0.140625 0.875 -0.140625q0.625 0 1.09375 0.25q0.46875 0.25 0.71875 0.71875q0.265625 0.453125 0.265625 1.078125q0 0.484375 -0.15625 0.859375q-0.140625 0.375 -0.421875 0.65625q-0.265625 0.265625 -0.65625 0.40625q-0.375 0.140625 -0.84375 0.140625zm0 -0.90625q0.25 0 0.4375 -0.125q0.203125 -0.140625 0.3125 -0.390625q0.109375 -0.25 0.109375 -0.640625q0 -0.578125 -0.234375 -0.859375q-0.234375 -0.28125 -0.625 -0.28125q-0.265625 0 -0.46875 0.125q-0.1875 0.125 -0.296875 0.375q-0.109375 0.25 -0.109375 0.640625q0 0.578125 0.234375 0.875q0.25 0.28125 0.640625 0.28125zm4.3213196 0.90625q-0.359375 0 -0.734375 -0.078125q-0.359375 -0.0625 -0.671875 -0.203125q-0.15625 -0.078125 -0.234375 -0.203125q-0.0625 -0.125 -0.0625 -0.25q0.015625 -0.140625 0.09375 -0.234375q0.078125 -0.109375 0.203125 -0.140625q0.125 -0.046875 0.28125 0.03125q0.328125 0.125 0.59375 0.1875q0.28125 0.046875 0.53125 0.046875q0.34375 0 0.5 -0.09375q0.15625 -0.109375 0.15625 -0.296875q0 -0.15625 -0.109375 -0.234375q-0.09375 -0.078125 -0.296875 -0.109375l-0.828125 -0.15625q-0.5 -0.09375 -0.765625 -0.359375q-0.265625 -0.28125 -0.265625 -0.71875q0 -0.390625 0.21875 -0.6875q0.21875 -0.296875 0.609375 -0.453125q0.40625 -0.15625 0.90625 -0.15625q0.359375 0 0.65625 0.078125q0.3125 0.0625 0.59375 0.203125q0.140625 0.078125 0.203125 0.203125q0.0625 0.109375 0.03125 0.234375q-0.015625 0.125 -0.09375 0.234375q-0.078125 0.109375 -0.203125 0.140625q-0.125 0.03125 -0.28125 -0.03125q-0.25 -0.125 -0.46875 -0.171875q-0.21875 -0.0625 -0.421875 -0.0625q-0.359375 0 -0.515625 0.125q-0.15625 0.109375 -0.15625 0.28125q0 0.140625 0.078125 0.234375q0.09375 0.09375 0.296875 0.125l0.828125 0.15625q0.53125 0.078125 0.796875 0.34375q0.28125 0.265625 0.28125 0.703125q0 0.609375 -0.484375 0.96875q-0.46875 0.34375 -1.265625 0.34375zm4.31781 0q-0.546875 0 -0.921875 -0.1875q-0.375 -0.1875 -0.5625 -0.53125q-0.171875 -0.359375 -0.171875 -0.890625l0 -1.515625l-0.328125 0q-0.234375 0 -0.359375 -0.109375q-0.125 -0.125 -0.125 -0.328125q0 -0.234375 0.125 -0.34375q0.125 -0.109375 0.359375 -0.109375l0.328125 0l0 -0.609375q0 -0.3125 0.15625 -0.46875q0.171875 -0.15625 0.453125 -0.15625q0.296875 0 0.4375 0.15625q0.15625 0.15625 0.15625 0.46875l0 0.609375l0.765625 0q0.21875 0 0.34375 0.109375q0.125 0.109375 0.125 0.34375q0 0.203125 -0.125 0.328125q-0.125 0.109375 -0.34375 0.109375l-0.765625 0l0 1.46875q0 0.328125 0.15625 0.5q0.15625 0.171875 0.5 0.171875q0.125 0 0.21875 -0.015625q0.109375 -0.03125 0.203125 -0.046875q0.109375 0 0.171875 0.078125q0.078125 0.0625 0.078125 0.328125q0 0.1875 -0.0625 0.328125q-0.0625 0.140625 -0.21875 0.203125q-0.109375 0.046875 -0.296875 0.078125q-0.171875 0.03125 -0.296875 0.03125zm5.651428 0q-0.328125 0 -0.6875 -0.0625q-0.34375 -0.046875 -0.65625 -0.140625q-0.3125 -0.09375 -0.5625 -0.25q-0.171875 -0.09375 -0.25 -0.25q-0.0625 -0.15625 -0.046875 -0.3125q0.015625 -0.15625 0.109375 -0.28125q0.109375 -0.125 0.265625 -0.15625q0.15625 -0.046875 0.34375 0.0625q0.328125 0.171875 0.71875 0.265625q0.390625 0.09375 0.765625 0.09375q0.59375 0 0.828125 -0.171875q0.25 -0.1875 0.25 -0.46875q0 -0.234375 -0.171875 -0.359375q-0.171875 -0.140625 -0.609375 -0.234375l-0.90625 -0.203125q-0.765625 -0.15625 -1.140625 -0.53125q-0.375 -0.390625 -0.375 -1.03125q0 -0.40625 0.171875 -0.71875q0.171875 -0.328125 0.46875 -0.5625q0.3125 -0.25 0.71875 -0.375q0.421875 -0.140625 0.9375 -0.140625q0.4375 0 0.875 0.109375q0.4375 0.109375 0.765625 0.328125q0.15625 0.09375 0.203125 0.25q0.0625 0.140625 0.046875 0.296875q-0.015625 0.140625 -0.125 0.25q-0.09375 0.109375 -0.25 0.140625q-0.140625 0.03125 -0.359375 -0.078125q-0.265625 -0.125 -0.5625 -0.1875q-0.296875 -0.078125 -0.609375 -0.078125q-0.328125 0 -0.578125 0.09375q-0.234375 0.09375 -0.359375 0.25q-0.109375 0.15625 -0.109375 0.375q0 0.21875 0.15625 0.375q0.171875 0.140625 0.59375 0.21875l0.90625 0.203125q0.78125 0.15625 1.15625 0.53125q0.390625 0.375 0.390625 0.984375q0 0.40625 -0.171875 0.734375q-0.15625 0.3125 -0.46875 0.546875q-0.296875 0.234375 -0.71875 0.359375q-0.421875 0.125 -0.953125 0.125zm3.6279297 -0.03125q-0.296875 0 -0.453125 -0.171875q-0.15625 -0.171875 -0.15625 -0.484375l0 -2.734375q0 -0.3125 0.15625 -0.484375q0.15625 -0.171875 0.453125 -0.171875q0.28125 0 0.4375 0.171875q0.15625 0.171875 0.15625 0.484375l0 2.734375q0 0.3125 -0.15625 0.484375q-0.140625 0.171875 -0.4375 0.171875zm0 -4.703125q-0.34375 0 -0.53125 -0.15625q-0.171875 -0.15625 -0.171875 -0.453125q0 -0.296875 0.171875 -0.453125q0.1875 -0.15625 0.53125 -0.15625q0.328125 0 0.5 0.15625q0.1875 0.15625 0.1875 0.453125q0 0.296875 -0.1875 0.453125q-0.171875 0.15625 -0.5 0.15625zm3.425232 6.171875q-0.4375 0 -0.84375 -0.078125q-0.390625 -0.0625 -0.6875 -0.21875q-0.1875 -0.078125 -0.265625 -0.203125q-0.078125 -0.125 -0.0625 -0.28125q0.015625 -0.140625 0.09375 -0.25q0.09375 -0.109375 0.21875 -0.15625q0.125 -0.046875 0.265625 0.03125q0.359375 0.15625 0.65625 0.203125q0.296875 0.046875 0.515625 0.046875q0.515625 0 0.765625 -0.234375q0.25 -0.234375 0.25 -0.703125l0 -0.609375l0.078125 0q-0.125 0.359375 -0.5 0.59375q-0.375 0.234375 -0.828125 0.234375q-0.53125 0 -0.921875 -0.234375q-0.390625 -0.25 -0.609375 -0.6875q-0.21875 -0.453125 -0.21875 -1.046875q0 -0.4375 0.125 -0.796875q0.125 -0.359375 0.34375 -0.609375q0.234375 -0.265625 0.5625 -0.40625q0.328125 -0.140625 0.71875 -0.140625q0.46875 0 0.828125 0.234375q0.375 0.234375 0.5 0.59375l-0.09375 0.265625l0 -0.46875q0 -0.296875 0.15625 -0.4375q0.15625 -0.15625 0.453125 -0.15625q0.28125 0 0.4375 0.15625q0.15625 0.140625 0.15625 0.4375l0 2.9375q0 0.984375 -0.546875 1.484375q-0.53125 0.5 -1.546875 0.5zm0.015625 -2.53125q0.265625 0 0.46875 -0.125q0.203125 -0.125 0.3125 -0.359375q0.109375 -0.25 0.109375 -0.578125q0 -0.484375 -0.25 -0.765625q-0.234375 -0.28125 -0.640625 -0.28125q-0.265625 0 -0.46875 0.125q-0.203125 0.125 -0.3125 0.359375q-0.109375 0.234375 -0.109375 0.5625q0 0.5 0.234375 0.78125q0.25 0.28125 0.65625 0.28125zm3.6230469 1.078125q-0.296875 0 -0.453125 -0.15625q-0.15625 -0.171875 -0.15625 -0.46875l0 -2.84375q0 -0.296875 0.15625 -0.4375q0.15625 -0.15625 0.4375 -0.15625q0.28125 0 0.421875 0.15625q0.15625 0.140625 0.15625 0.4375l0 0.46875l-0.078125 -0.265625q0.1875 -0.390625 0.546875 -0.609375q0.359375 -0.21875 0.828125 -0.21875q0.46875 0 0.765625 0.1875q0.3125 0.1875 0.453125 0.546875q0.15625 0.359375 0.15625 0.921875l0 1.8125q0 0.296875 -0.15625 0.46875q-0.140625 0.15625 -0.4375 0.15625q-0.296875 0 -0.453125 -0.15625q-0.15625 -0.171875 -0.15625 -0.46875l0 -1.75q0 -0.421875 -0.15625 -0.59375q-0.140625 -0.1875 -0.4375 -0.1875q-0.390625 0 -0.625 0.25q-0.21875 0.234375 -0.21875 0.640625l0 1.640625q0 0.625 -0.59375 0.625zm4.7599487 -0.015625q-0.296875 0 -0.453125 -0.171875q-0.15625 -0.171875 -0.15625 -0.484375l0 -2.734375q0 -0.3125 0.15625 -0.484375q0.15625 -0.171875 0.453125 -0.171875q0.28125 0 0.4375 0.171875q0.15625 0.171875 0.15625 0.484375l0 2.734375q0 0.3125 -0.15625 0.484375q-0.140625 0.171875 -0.4375 0.171875zm0 -4.703125q-0.34375 0 -0.53125 -0.15625q-0.171875 -0.15625 -0.171875 -0.453125q0 -0.296875 0.171875 -0.453125q0.1875 -0.15625 0.53125 -0.15625q0.328125 0 0.5 0.15625q0.1875 0.15625 0.1875 0.453125q0 0.296875 -0.1875 0.453125q-0.171875 0.15625 -0.5 0.15625zm2.4408264 4.71875q-0.296875 0 -0.453125 -0.15625q-0.15625 -0.171875 -0.15625 -0.46875l0 -2.484375l-0.28125 0q-0.234375 0 -0.359375 -0.109375q-0.109375 -0.125 -0.109375 -0.328125q0 -0.234375 0.109375 -0.34375q0.125 -0.109375 0.359375 -0.109375l0.640625 0l-0.359375 0.3125l0 -0.25q0 -0.84375 0.40625 -1.265625q0.421875 -0.4375 1.25 -0.515625l0.21875 -0.03125q0.234375 -0.015625 0.359375 0.0625q0.140625 0.078125 0.171875 0.203125q0.046875 0.125 0.015625 0.265625q-0.015625 0.125 -0.09375 0.234375q-0.078125 0.09375 -0.21875 0.109375l-0.15625 0.015625q-0.40625 0.015625 -0.578125 0.203125q-0.171875 0.171875 -0.171875 0.515625l0 0.265625l-0.140625 -0.125l2.234375 0q0.296875 0 0.4375 0.171875q0.15625 0.171875 0.15625 0.484375l0 2.671875q0 0.3125 -0.15625 0.484375q-0.140625 0.171875 -0.4375 0.171875q-0.28125 0 -0.453125 -0.171875q-0.15625 -0.171875 -0.15625 -0.484375l0 -2.4375l-1.484375 0l0 2.484375q0 0.625 -0.59375 0.625zm2.71875 -4.71875q-0.328125 0 -0.5 -0.15625q-0.171875 -0.15625 -0.171875 -0.453125q0 -0.296875 0.171875 -0.453125q0.171875 -0.15625 0.5 -0.15625q0.3125 0 0.484375 0.15625q0.171875 0.15625 0.171875 0.453125q0 0.296875 -0.171875 0.453125q-0.171875 0.15625 -0.484375 0.15625zm3.4172058 4.734375q-0.640625 0 -1.125 -0.25q-0.46875 -0.265625 -0.734375 -0.71875q-0.25 -0.46875 -0.25 -1.09375q0 -0.484375 0.140625 -0.859375q0.15625 -0.375 0.421875 -0.640625q0.28125 -0.265625 0.671875 -0.40625q0.390625 -0.140625 0.875 -0.140625q0.25 0 0.53125 0.0625q0.28125 0.0625 0.546875 0.203125q0.15625 0.078125 0.21875 0.21875q0.0625 0.125 0.046875 0.265625q-0.015625 0.140625 -0.109375 0.25q-0.078125 0.109375 -0.203125 0.140625q-0.125 0.03125 -0.28125 -0.046875q-0.15625 -0.09375 -0.328125 -0.125q-0.15625 -0.046875 -0.296875 -0.046875q-0.25 0 -0.4375 0.078125q-0.171875 0.078125 -0.296875 0.21875q-0.125 0.140625 -0.203125 0.359375q-0.0625 0.203125 -0.0625 0.46875q0 0.53125 0.265625 0.828125q0.265625 0.296875 0.734375 0.296875q0.140625 0 0.296875 -0.03125q0.15625 -0.03125 0.328125 -0.125q0.15625 -0.078125 0.28125 -0.03125q0.125 0.03125 0.203125 0.140625q0.078125 0.109375 0.09375 0.25q0.015625 0.140625 -0.046875 0.28125q-0.0625 0.125 -0.21875 0.1875q-0.265625 0.140625 -0.546875 0.203125q-0.265625 0.0625 -0.515625 0.0625zm3.2297974 0q-0.4375 0 -0.78125 -0.171875q-0.34375 -0.171875 -0.546875 -0.453125q-0.1875 -0.296875 -0.1875 -0.65625q0 -0.421875 0.21875 -0.671875q0.234375 -0.265625 0.734375 -0.375q0.515625 -0.109375 1.34375 -0.109375l0.421875 0l0 0.625l-0.421875 0q-0.40625 0 -0.65625 0.046875q-0.25 0.046875 -0.359375 0.15625q-0.109375 0.09375 -0.109375 0.28125q0 0.21875 0.15625 0.375q0.15625 0.140625 0.453125 0.140625q0.234375 0 0.40625 -0.109375q0.1875 -0.109375 0.28125 -0.296875q0.109375 -0.1875 0.109375 -0.421875l0 -0.921875q0 -0.359375 -0.15625 -0.5q-0.15625 -0.15625 -0.546875 -0.15625q-0.21875 0 -0.46875 0.0625q-0.25 0.046875 -0.546875 0.171875q-0.1875 0.078125 -0.328125 0.03125q-0.125 -0.046875 -0.203125 -0.15625q-0.0625 -0.125 -0.0625 -0.265625q0 -0.140625 0.078125 -0.265625q0.078125 -0.140625 0.265625 -0.203125q0.375 -0.140625 0.703125 -0.203125q0.328125 -0.0625 0.609375 -0.0625q0.625 0 1.015625 0.1875q0.390625 0.1875 0.59375 0.5625q0.203125 0.359375 0.203125 0.953125l0 1.765625q0 0.296875 -0.140625 0.46875q-0.140625 0.15625 -0.421875 0.15625q-0.265625 0 -0.421875 -0.15625q-0.140625 -0.171875 -0.140625 -0.46875l0 -0.296875l0.046875 0.046875q-0.046875 0.28125 -0.203125 0.484375q-0.15625 0.1875 -0.390625 0.296875q-0.234375 0.109375 -0.546875 0.109375zm3.7372131 -0.015625q-0.296875 0 -0.453125 -0.15625q-0.15625 -0.171875 -0.15625 -0.46875l0 -2.84375q0 -0.296875 0.15625 -0.4375q0.15625 -0.15625 0.4375 -0.15625q0.28125 0 0.421875 0.15625q0.15625 0.140625 0.15625 0.4375l0 0.46875l-0.078125 -0.265625q0.1875 -0.390625 0.546875 -0.609375q0.359375 -0.21875 0.828125 -0.21875q0.46875 0 0.765625 0.1875q0.3125 0.1875 0.453125 0.546875q0.15625 0.359375 0.15625 0.921875l0 1.8125q0 0.296875 -0.15625 0.46875q-0.140625 0.15625 -0.4375 0.15625q-0.296875 0 -0.453125 -0.15625q-0.15625 -0.171875 -0.15625 -0.46875l0 -1.75q0 -0.421875 -0.15625 -0.59375q-0.140625 -0.1875 -0.4375 -0.1875q-0.390625 0 -0.625 0.25q-0.21875 0.234375 -0.21875 0.640625l0 1.640625q0 0.625 -0.59375 0.625zm6.072418 0.015625q-0.546875 0 -0.921875 -0.1875q-0.375 -0.1875 -0.5625 -0.53125q-0.171875 -0.359375 -0.171875 -0.890625l0 -1.515625l-0.328125 0q-0.234375 0 -0.359375 -0.109375q-0.125 -0.125 -0.125 -0.328125q0 -0.234375 0.125 -0.34375q0.125 -0.109375 0.359375 -0.109375l0.328125 0l0 -0.609375q0 -0.3125 0.15625 -0.46875q0.171875 -0.15625 0.453125 -0.15625q0.296875 0 0.4375 0.15625q0.15625 0.15625 0.15625 0.46875l0 0.609375l0.765625 0q0.21875 0 0.34375 0.109375q0.125 0.109375 0.125 0.34375q0 0.203125 -0.125 0.328125q-0.125 0.109375 -0.34375 0.109375l-0.765625 0l0 1.46875q0 0.328125 0.15625 0.5q0.15625 0.171875 0.5 0.171875q0.125 0 0.21875 -0.015625q0.109375 -0.03125 0.203125 -0.046875q0.109375 0 0.171875 0.078125q0.078125 0.0625 0.078125 0.328125q0 0.1875 -0.0625 0.328125q-0.0625 0.140625 -0.21875 0.203125q-0.109375 0.046875 -0.296875 0.078125q-0.171875 0.03125 -0.296875 0.03125zm4.292053 -0.09375q-0.3125 0 -0.484375 -0.171875q-0.171875 -0.171875 -0.171875 -0.46875l0 -4.34375q0 -0.3125 0.171875 -0.484375q0.171875 -0.171875 0.484375 -0.171875l1.9375 0q0.59375 0 1.015625 0.1875q0.421875 0.171875 0.640625 0.5q0.234375 0.328125 0.234375 0.78125q0 0.5 -0.296875 0.859375q-0.28125 0.34375 -0.796875 0.46875l0 -0.125q0.59375 0.09375 0.90625 0.453125q0.328125 0.359375 0.328125 0.921875q0 0.75 -0.515625 1.171875q-0.515625 0.421875 -1.4375 0.421875l-2.015625 0zm0.53125 -0.921875l1.328125 0q0.46875 0 0.6875 -0.1875q0.234375 -0.1875 0.234375 -0.546875q0 -0.375 -0.234375 -0.5625q-0.21875 -0.1875 -0.6875 -0.1875l-1.328125 0l0 1.484375zm0 -2.390625l1.1875 0q0.46875 0 0.6875 -0.171875q0.21875 -0.1875 0.21875 -0.546875q0 -0.34375 -0.21875 -0.515625q-0.21875 -0.171875 -0.6875 -0.171875l-1.1875 0l0 1.40625zm4.8880615 3.375q-0.296875 0 -0.453125 -0.171875q-0.15625 -0.171875 -0.15625 -0.484375l0 -2.734375q0 -0.3125 0.15625 -0.484375q0.15625 -0.171875 0.453125 -0.171875q0.28125 0 0.4375 0.171875q0.15625 0.171875 0.15625 0.484375l0 2.734375q0 0.3125 -0.15625 0.484375q-0.140625 0.171875 -0.4375 0.171875zm0 -4.703125q-0.34375 0 -0.53125 -0.15625q-0.171875 -0.15625 -0.171875 -0.453125q0 -0.296875 0.171875 -0.453125q0.1875 -0.15625 0.53125 -0.15625q0.328125 0 0.5 0.15625q0.1875 0.15625 0.1875 0.453125q0 0.296875 -0.1875 0.453125q-0.171875 0.15625 -0.5 0.15625zm3.4564514 4.734375q-0.546875 0 -0.921875 -0.1875q-0.375 -0.1875 -0.5625 -0.53125q-0.171875 -0.359375 -0.171875 -0.890625l0 -1.515625l-0.328125 0q-0.234375 0 -0.359375 -0.109375q-0.125 -0.125 -0.125 -0.328125q0 -0.234375 0.125 -0.34375q0.125 -0.109375 0.359375 -0.109375l0.328125 0l0 -0.609375q0 -0.3125 0.15625 -0.46875q0.171875 -0.15625 0.453125 -0.15625q0.296875 0 0.4375 0.15625q0.15625 0.15625 0.15625 0.46875l0 0.609375l0.765625 0q0.21875 0 0.34375 0.109375q0.125 0.109375 0.125 0.34375q0 0.203125 -0.125 0.328125q-0.125 0.109375 -0.34375 0.109375l-0.765625 0l0 1.46875q0 0.328125 0.15625 0.5q0.15625 0.171875 0.5 0.171875q0.125 0 0.21875 -0.015625q0.109375 -0.03125 0.203125 -0.046875q0.109375 0 0.171875 0.078125q0.078125 0.0625 0.078125 0.328125q0 0.1875 -0.0625 0.328125q-0.0625 0.140625 -0.21875 0.203125q-0.109375 0.046875 -0.296875 0.078125q-0.171875 0.03125 -0.296875 0.03125z" fill-rule="nonzero"/><path fill="#000000" fill-opacity="0.0" d="m319.1916 166.3517l54.4252 0l0 42.86615l-54.4252 0z" fill-rule="evenodd"/><path fill="#595959" d="m338.19955 197.11171q-0.84375 0 -1.234375 -0.390625q-0.390625 -0.40625 -0.390625 -1.171875q0 -0.5 0.25 -0.921875q0.25 -0.4375 0.671875 -0.890625l4.265625 -4.484375q0.953125 -1.015625 1.359375 -1.8125q0.421875 -0.796875 0.421875 -1.59375q0 -0.984375 -0.640625 -1.5q-0.640625 -0.53125 -1.875 -0.53125q-0.65625 0 -1.34375 0.203125q-0.6875 0.1875 -1.4375 0.609375q-0.5 0.265625 -0.921875 0.1875q-0.421875 -0.078125 -0.71875 -0.375q-0.28125 -0.3125 -0.375 -0.734375q-0.09375 -0.4375 0.078125 -0.859375q0.1875 -0.4375 0.6875 -0.734375q1.0 -0.609375 2.171875 -0.90625q1.1875 -0.3125 2.34375 -0.3125q1.78125 0 3.0 0.53125q1.234375 0.53125 1.859375 1.546875q0.640625 1.015625 0.640625 2.5q0 0.953125 -0.296875 1.859375q-0.296875 0.90625 -0.921875 1.828125q-0.609375 0.90625 -1.640625 1.953125l-3.953125 4.03125l0 -0.90625l6.140625 0q0.71875 0 1.09375 0.359375q0.375 0.359375 0.375 1.0625q0 0.703125 -0.375 1.078125q-0.375 0.375 -1.09375 0.375l-8.140625 0z" fill-rule="nonzero"/><path fill="#595959" d="m352.94952 188.78358q-0.8125 0 -1.640625 -0.1875q-0.8125 -0.203125 -1.421875 -0.546875q-0.390625 -0.203125 -0.53125 -0.5q-0.140625 -0.296875 -0.109375 -0.578125q0.046875 -0.296875 0.234375 -0.515625q0.203125 -0.21875 0.5 -0.28125q0.3125 -0.0625 0.703125 0.125q0.578125 0.28125 1.109375 0.40625q0.53125 0.125 1.0625 0.125q0.609375 0 1.015625 -0.15625q0.40625 -0.15625 0.609375 -0.453125q0.21875 -0.3125 0.21875 -0.765625q0 -0.640625 -0.4375 -0.953125q-0.4375 -0.3125 -1.28125 -0.3125l-0.890625 0q-0.5 0 -0.765625 -0.25q-0.265625 -0.25 -0.265625 -0.6875q0 -0.453125 0.265625 -0.703125q0.265625 -0.25 0.765625 -0.25l0.65625 0q0.515625 0 0.859375 -0.15625q0.359375 -0.171875 0.5625 -0.453125q0.21875 -0.28125 0.21875 -0.703125q0 -0.609375 -0.421875 -0.921875q-0.421875 -0.328125 -1.203125 -0.328125q-0.484375 0 -0.953125 0.125q-0.46875 0.109375 -1.015625 0.390625q-0.328125 0.171875 -0.625 0.109375q-0.28125 -0.0625 -0.46875 -0.265625q-0.1875 -0.21875 -0.25 -0.5q-0.046875 -0.28125 0.078125 -0.5625q0.140625 -0.28125 0.484375 -0.46875q0.65625 -0.375 1.40625 -0.5625q0.765625 -0.203125 1.5625 -0.203125q1.140625 0 1.953125 0.34375q0.828125 0.34375 1.265625 0.984375q0.4375 0.640625 0.4375 1.546875q0 0.625 -0.25 1.140625q-0.234375 0.515625 -0.671875 0.875q-0.421875 0.34375 -1.046875 0.5l0 -0.203125q1.078125 0.1875 1.671875 0.90625q0.609375 0.703125 0.609375 1.765625q0 0.953125 -0.484375 1.65625q-0.484375 0.703125 -1.390625 1.09375q-0.890625 0.375 -2.125 0.375z" fill-rule="nonzero"/><path fill="#000000" fill-opacity="0.0" d="m396.55643 166.3517l54.4252 0l0 42.86615l-54.4252 0z" fill-rule="evenodd"/><path fill="#595959" d="m415.5644 197.11171q-0.84375 0 -1.234375 -0.390625q-0.390625 -0.40625 -0.390625 -1.171875q0 -0.5 0.25 -0.921875q0.25 -0.4375 0.671875 -0.890625l4.265625 -4.484375q0.953125 -1.015625 1.359375 -1.8125q0.421875 -0.796875 0.421875 -1.59375q0 -0.984375 -0.640625 -1.5q-0.640625 -0.53125 -1.875 -0.53125q-0.65625 0 -1.34375 0.203125q-0.6875 0.1875 -1.4375 0.609375q-0.5 0.265625 -0.921875 0.1875q-0.421875 -0.078125 -0.71875 -0.375q-0.28125 -0.3125 -0.375 -0.734375q-0.09375 -0.4375 0.078125 -0.859375q0.1875 -0.4375 0.6875 -0.734375q1.0 -0.609375 2.171875 -0.90625q1.1875 -0.3125 2.34375 -0.3125q1.78125 0 3.0 0.53125q1.234375 0.53125 1.859375 1.546875q0.640625 1.015625 0.640625 2.5q0 0.953125 -0.296875 1.859375q-0.296875 0.90625 -0.921875 1.828125q-0.609375 0.90625 -1.640625 1.953125l-3.953125 4.03125l0 -0.90625l6.140625 0q0.71875 0 1.09375 0.359375q0.375 0.359375 0.375 1.0625q0 0.703125 -0.375 1.078125q-0.375 0.375 -1.09375 0.375l-8.140625 0z" fill-rule="nonzero"/><path fill="#595959" d="m428.11124 188.61171q-0.546875 0 -0.8125 -0.265625q-0.265625 -0.265625 -0.265625 -0.78125q0 -0.328125 0.15625 -0.609375q0.171875 -0.296875 0.453125 -0.59375l2.84375 -3.0q0.640625 -0.671875 0.921875 -1.203125q0.28125 -0.53125 0.28125 -1.0625q0 -0.65625 -0.4375 -1.0q-0.421875 -0.359375 -1.25 -0.359375q-0.4375 0 -0.90625 0.140625q-0.453125 0.125 -0.953125 0.40625q-0.328125 0.1875 -0.609375 0.140625q-0.28125 -0.0625 -0.484375 -0.265625q-0.1875 -0.203125 -0.25 -0.484375q-0.0625 -0.296875 0.0625 -0.578125q0.125 -0.296875 0.453125 -0.484375q0.671875 -0.40625 1.453125 -0.609375q0.78125 -0.203125 1.5625 -0.203125q1.1875 0 2.0 0.359375q0.8125 0.34375 1.234375 1.03125q0.4375 0.671875 0.4375 1.65625q0 0.640625 -0.203125 1.25q-0.203125 0.59375 -0.625 1.203125q-0.40625 0.609375 -1.078125 1.3125l-2.640625 2.6875l0 -0.609375l4.09375 0q0.484375 0 0.71875 0.25q0.25 0.234375 0.25 0.703125q0 0.46875 -0.25 0.71875q-0.234375 0.25 -0.71875 0.25l-5.4375 0z" fill-rule="nonzero"/><path fill="#000000" fill-opacity="0.0" d="m474.8294 166.3517l54.42517 0l0 42.86615l-54.42517 0z" fill-rule="evenodd"/><path fill="#595959" d="m493.83734 197.11171q-0.84375 0 -1.234375 -0.390625q-0.390625 -0.40625 -0.390625 -1.171875q0 -0.5 0.25 -0.921875q0.25 -0.4375 0.671875 -0.890625l4.265625 -4.484375q0.953125 -1.015625 1.359375 -1.8125q0.421875 -0.796875 0.421875 -1.59375q0 -0.984375 -0.640625 -1.5q-0.640625 -0.53125 -1.875 -0.53125q-0.65625 0 -1.34375 0.203125q-0.6875 0.1875 -1.4375 0.609375q-0.5 0.265625 -0.921875 0.1875q-0.421875 -0.078125 -0.71875 -0.375q-0.28125 -0.3125 -0.375 -0.734375q-0.09375 -0.4375 0.078125 -0.859375q0.1875 -0.4375 0.6875 -0.734375q1.0 -0.609375 2.171875 -0.90625q1.1875 -0.3125 2.34375 -0.3125q1.78125 0 3.0 0.53125q1.234375 0.53125 1.859375 1.546875q0.640625 1.015625 0.640625 2.5q0 0.953125 -0.296875 1.859375q-0.296875 0.90625 -0.921875 1.828125q-0.609375 0.90625 -1.640625 1.953125l-3.953125 4.03125l0 -0.90625l6.140625 0q0.71875 0 1.09375 0.359375q0.375 0.359375 0.375 1.0625q0 0.703125 -0.375 1.078125q-0.375 0.375 -1.09375 0.375l-8.140625 0z" fill-rule="nonzero"/><path fill="#595959" d="m506.68106 188.61171q-0.484375 0 -0.75 -0.25q-0.25 -0.265625 -0.25 -0.71875q0 -0.46875 0.25 -0.703125q0.265625 -0.25 0.75 -0.25l1.515625 0l0 -6.8125l1.109375 0l-2.203125 1.34375q-0.34375 0.21875 -0.640625 0.171875q-0.296875 -0.046875 -0.515625 -0.25q-0.203125 -0.21875 -0.28125 -0.515625q-0.0625 -0.296875 0.0625 -0.59375q0.125 -0.296875 0.453125 -0.5l2.09375 -1.265625q0.328125 -0.203125 0.640625 -0.3125q0.328125 -0.125 0.65625 -0.125q0.453125 0 0.703125 0.234375q0.265625 0.234375 0.265625 0.703125l0 7.921875l1.375 0q0.46878052 0 0.7187805 0.25q0.265625 0.234375 0.265625 0.703125q0 0.46875 -0.265625 0.71875q-0.25 0.25 -0.7187805 0.25l-5.234375 0z" fill-rule="nonzero"/><path fill="#000000" fill-opacity="0.0" d="m551.97375 166.3517l54.42517 0l0 42.86615l-54.42517 0z" fill-rule="evenodd"/><path fill="#595959" d="m570.9817 197.11171q-0.84375 0 -1.234375 -0.390625q-0.390625 -0.40625 -0.390625 -1.171875q0 -0.5 0.25 -0.921875q0.25 -0.4375 0.671875 -0.890625l4.265625 -4.484375q0.953125 -1.015625 1.359375 -1.8125q0.421875 -0.796875 0.421875 -1.59375q0 -0.984375 -0.640625 -1.5q-0.640625 -0.53125 -1.875 -0.53125q-0.65625 0 -1.34375 0.203125q-0.6875 0.1875 -1.4375 0.609375q-0.5 0.265625 -0.921875 0.1875q-0.421875 -0.078125 -0.71875 -0.375q-0.28125 -0.3125 -0.375 -0.734375q-0.09375 -0.4375 0.078125 -0.859375q0.1875 -0.4375 0.6875 -0.734375q1.0 -0.609375 2.171875 -0.90625q1.1875 -0.3125 2.34375 -0.3125q1.78125 0 3.0 0.53125q1.234375 0.53125 1.859375 1.546875q0.640625 1.015625 0.640625 2.5q0 0.953125 -0.296875 1.859375q-0.296875 0.90625 -0.921875 1.828125q-0.609375 0.90625 -1.640625 1.953125l-3.953125 4.03125l0 -0.90625l6.140625 0q0.71875 0 1.09375 0.359375q0.375 0.359375 0.375 1.0625q0 0.703125 -0.375 1.078125q-0.375 0.375 -1.09375 0.375l-8.140625 0z" fill-rule="nonzero"/><path fill="#595959" d="m585.9817 188.78358q-1.9375 0 -2.953125 -1.4375q-1.015625 -1.453125 -1.015625 -4.09375q0 -1.765625 0.453125 -2.984375q0.46875 -1.21875 1.34375 -1.84375q0.890625 -0.625 2.171875 -0.625q1.953125 0 2.953125 1.40625q1.015625 1.390625 1.015625 4.046875q0 1.765625 -0.46875 3.0q-0.453125 1.21875 -1.328125 1.875q-0.875 0.65625 -2.171875 0.65625zm0 -1.90625q0.875 0 1.296875 -0.859375q0.421875 -0.875 0.421875 -2.765625q0 -1.890625 -0.421875 -2.71875q-0.421875 -0.84375 -1.296875 -0.84375q-0.875 0 -1.296875 0.84375q-0.421875 0.828125 -0.421875 2.71875q0 1.890625 0.421875 2.765625q0.421875 0.859375 1.296875 0.859375z" fill-rule="nonzero"/><path fill="#000000" fill-opacity="0.0" d="m300.4882 133.72441l214.86612 0l0 20.566925l-214.86612 0z" fill-rule="evenodd"/><path fill="#595959" d="m313.3632 153.05817q-0.34375 0 -0.5625 -0.15625q-0.21875 -0.15625 -0.34375 -0.46875l-2.6875 -5.96875q-0.15625 -0.3125 -0.09375 -0.5625q0.0625 -0.265625 0.265625 -0.40625q0.203125 -0.140625 0.5 -0.140625q0.359375 0 0.546875 0.171875q0.1875 0.15625 0.328125 0.484375l2.34375 5.4375l-0.53125 0l2.359375 -5.453125q0.140625 -0.3125 0.328125 -0.46875q0.1875 -0.171875 0.53125 -0.171875q0.296875 0 0.46875 0.140625q0.1875 0.140625 0.234375 0.40625q0.0625 0.25 -0.078125 0.5625l-2.6875 5.96875q-0.15625 0.3125 -0.359375 0.46875q-0.203125 0.15625 -0.5625 0.15625zm5.601471 0.03125q-0.578125 0 -1.046875 -0.21875q-0.453125 -0.234375 -0.703125 -0.609375q-0.25 -0.390625 -0.25 -0.875q0 -0.578125 0.296875 -0.90625q0.296875 -0.34375 0.96875 -0.484375q0.671875 -0.140625 1.78125 -0.140625l0.5625 0l0 0.828125l-0.5625 0q-0.53125 0 -0.875 0.0625q-0.328125 0.0625 -0.484375 0.203125q-0.140625 0.125 -0.140625 0.375q0 0.296875 0.203125 0.5q0.21875 0.1875 0.609375 0.1875q0.3125 0 0.546875 -0.140625q0.234375 -0.15625 0.375 -0.40625q0.140625 -0.25 0.140625 -0.5625l0 -1.234375q0 -0.46875 -0.21875 -0.65625q-0.203125 -0.203125 -0.71875 -0.203125q-0.28125 0 -0.625 0.078125q-0.328125 0.0625 -0.734375 0.21875q-0.234375 0.109375 -0.421875 0.046875q-0.171875 -0.0625 -0.28125 -0.203125q-0.09375 -0.15625 -0.09375 -0.34375q0 -0.1875 0.109375 -0.359375q0.109375 -0.1875 0.359375 -0.265625q0.5 -0.203125 0.9375 -0.28125q0.4375 -0.078125 0.8125 -0.078125q0.828125 0 1.34375 0.25q0.53125 0.234375 0.796875 0.734375q0.265625 0.484375 0.265625 1.265625l0 2.375q0 0.390625 -0.1875 0.609375q-0.1875 0.203125 -0.546875 0.203125q-0.375 0 -0.578125 -0.203125q-0.1875 -0.21875 -0.1875 -0.609375l0 -0.40625l0.078125 0.0625q-0.0625 0.375 -0.28125 0.640625q-0.203125 0.25 -0.53125 0.40625q-0.3125 0.140625 -0.71875 0.140625zm6.0449524 0q-0.9375 0 -1.40625 -0.53125q-0.46875 -0.53125 -0.46875 -1.578125l0 -4.796875q0 -0.40625 0.203125 -0.609375q0.203125 -0.21875 0.59375 -0.21875q0.390625 0 0.59375 0.21875q0.21875 0.203125 0.21875 0.609375l0 4.734375q0 0.4375 0.171875 0.65625q0.1875 0.203125 0.5 0.203125q0.09375 0 0.15625 -0.015625q0.078125 -0.015625 0.171875 -0.015625q0.171875 -0.015625 0.234375 0.109375q0.0625 0.125 0.0625 0.484375q0 0.3125 -0.125 0.484375q-0.125 0.15625 -0.390625 0.21875q-0.109375 0 -0.25 0.015625q-0.140625 0.03125 -0.265625 0.03125zm3.595459 0q-0.65625 0 -1.09375 -0.25q-0.4375 -0.25 -0.65625 -0.734375q-0.203125 -0.5 -0.203125 -1.234375l0 -2.40625q0 -0.40625 0.203125 -0.609375q0.21875 -0.203125 0.59375 -0.203125q0.390625 0 0.59375 0.203125q0.21875 0.203125 0.21875 0.609375l0 2.4375q0 0.46875 0.1875 0.703125q0.203125 0.234375 0.609375 0.234375q0.46875 0 0.75 -0.328125q0.296875 -0.328125 0.296875 -0.859375l0 -2.1875q0 -0.40625 0.203125 -0.609375q0.21875 -0.203125 0.59375 -0.203125q0.40625 0 0.609375 0.203125q0.203125 0.203125 0.203125 0.609375l0 3.78125q0 0.8125 -0.78125 0.8125q-0.375 0 -0.578125 -0.203125q-0.203125 -0.21875 -0.203125 -0.609375l0 -0.71875l0.15625 0.421875q-0.234375 0.53125 -0.671875 0.84375q-0.4375 0.296875 -1.03125 0.296875zm7.0684814 0q-0.921875 0 -1.59375 -0.328125q-0.65625 -0.34375 -1.015625 -0.953125q-0.359375 -0.625 -0.359375 -1.453125q0 -0.8125 0.34375 -1.421875q0.34375 -0.609375 0.953125 -0.953125q0.609375 -0.359375 1.390625 -0.359375q0.5625 0 1.015625 0.1875q0.46875 0.1875 0.796875 0.546875q0.328125 0.34375 0.5 0.84375q0.171875 0.484375 0.171875 1.09375q0 0.203125 -0.125 0.3125q-0.125 0.09375 -0.375 0.09375l-3.34375 0l0 -0.828125l2.6875 0l-0.171875 0.140625q0 -0.4375 -0.140625 -0.71875q-0.125 -0.296875 -0.359375 -0.4375q-0.234375 -0.15625 -0.59375 -0.15625q-0.390625 0 -0.671875 0.1875q-0.28125 0.171875 -0.4375 0.515625q-0.140625 0.328125 -0.140625 0.8125l0 0.078125q0 0.8125 0.375 1.203125q0.390625 0.375 1.140625 0.375q0.25 0 0.578125 -0.0625q0.328125 -0.0625 0.625 -0.203125q0.234375 -0.109375 0.421875 -0.0625q0.203125 0.03125 0.296875 0.171875q0.109375 0.125 0.125 0.3125q0.03125 0.1875 -0.078125 0.359375q-0.09375 0.171875 -0.3125 0.296875q-0.359375 0.203125 -0.8125 0.296875q-0.453125 0.109375 -0.890625 0.109375zm5.147217 0q-0.46875 0 -0.96875 -0.09375q-0.5 -0.078125 -0.90625 -0.28125q-0.203125 -0.109375 -0.296875 -0.265625q-0.09375 -0.171875 -0.078125 -0.34375q0.015625 -0.171875 0.109375 -0.3125q0.109375 -0.140625 0.265625 -0.1875q0.171875 -0.046875 0.375 0.03125q0.4375 0.1875 0.796875 0.265625q0.359375 0.078125 0.703125 0.078125q0.46875 0 0.671875 -0.140625q0.203125 -0.15625 0.203125 -0.390625q0 -0.203125 -0.140625 -0.3125q-0.125 -0.109375 -0.390625 -0.15625l-1.125 -0.203125q-0.65625 -0.109375 -1.015625 -0.46875q-0.359375 -0.375 -0.359375 -0.953125q0 -0.53125 0.296875 -0.921875q0.296875 -0.390625 0.828125 -0.59375q0.53125 -0.21875 1.203125 -0.21875q0.46875 0 0.875 0.09375q0.40625 0.078125 0.78125 0.28125q0.1875 0.09375 0.265625 0.25q0.09375 0.15625 0.0625 0.328125q-0.03125 0.171875 -0.140625 0.3125q-0.09375 0.140625 -0.265625 0.1875q-0.171875 0.03125 -0.375 -0.046875q-0.34375 -0.171875 -0.640625 -0.234375q-0.28125 -0.0625 -0.546875 -0.0625q-0.484375 0 -0.703125 0.15625q-0.203125 0.140625 -0.203125 0.375q0 0.1875 0.125 0.3125q0.125 0.125 0.375 0.15625l1.125 0.203125q0.6875 0.125 1.046875 0.46875q0.359375 0.34375 0.359375 0.9375q0 0.8125 -0.640625 1.28125q-0.625 0.46875 -1.671875 0.46875zm8.731689 0q-0.84375 0 -1.46875 -0.328125q-0.625 -0.34375 -0.96875 -0.953125q-0.34375 -0.625 -0.34375 -1.46875q0 -0.625 0.1875 -1.125q0.203125 -0.5 0.5625 -0.859375q0.375 -0.359375 0.875 -0.546875q0.515625 -0.1875 1.15625 -0.1875q0.828125 0 1.453125 0.34375q0.625 0.328125 0.96875 0.9375q0.359375 0.59375 0.359375 1.4375q0 0.640625 -0.203125 1.140625q-0.203125 0.5 -0.5625 0.875q-0.359375 0.359375 -0.875 0.546875q-0.515625 0.1875 -1.140625 0.1875zm0 -1.21875q0.34375 0 0.59375 -0.15625q0.265625 -0.171875 0.40625 -0.5q0.15625 -0.34375 0.15625 -0.875q0 -0.78125 -0.328125 -1.140625q-0.3125 -0.375 -0.828125 -0.375q-0.34375 0 -0.609375 0.171875q-0.265625 0.15625 -0.40625 0.5q-0.140625 0.328125 -0.140625 0.84375q0 0.78125 0.3125 1.15625q0.328125 0.375 0.84375 0.375zm4.9107666 1.1875q-0.390625 0 -0.609375 -0.203125q-0.203125 -0.21875 -0.203125 -0.609375l0 -3.3125l-0.375 0q-0.296875 0 -0.46875 -0.15625q-0.15625 -0.15625 -0.15625 -0.4375q0 -0.296875 0.15625 -0.453125q0.171875 -0.15625 0.46875 -0.15625l0.84375 0l-0.46875 0.421875l0 -0.328125q0 -1.140625 0.5625 -1.703125q0.578125 -0.5625 1.6875 -0.671875l0.34375 -0.046875q0.28125 -0.015625 0.4375 0.09375q0.171875 0.109375 0.21875 0.28125q0.0625 0.171875 0.03125 0.34375q-0.03125 0.171875 -0.15625 0.3125q-0.109375 0.125 -0.296875 0.140625l-0.140625 0q-0.578125 0.046875 -0.828125 0.28125q-0.25 0.234375 -0.25 0.703125l0 0.359375l-0.203125 -0.1875l0.96875 0q0.3125 0 0.46875 0.15625q0.15625 0.15625 0.15625 0.453125q0 0.28125 -0.15625 0.4375q-0.15625 0.15625 -0.46875 0.15625l-0.765625 0l0 3.3125q0 0.8125 -0.796875 0.8125zm7.0438538 0q-0.390625 0 -0.609375 -0.203125q-0.203125 -0.21875 -0.203125 -0.609375l0 -3.3125l-0.375 0q-0.296875 0 -0.46875 -0.15625q-0.15625 -0.15625 -0.15625 -0.4375q0 -0.296875 0.15625 -0.453125q0.171875 -0.15625 0.46875 -0.15625l0.84375 0l-0.46875 0.421875l0 -0.328125q0 -1.140625 0.5625 -1.703125q0.578125 -0.5625 1.6875 -0.671875l0.34375 -0.046875q0.28125 -0.015625 0.4375 0.09375q0.171875 0.109375 0.21875 0.28125q0.0625 0.171875 0.03125 0.34375q-0.03125 0.171875 -0.15625 0.3125q-0.109375 0.125 -0.296875 0.140625l-0.140625 0q-0.578125 0.046875 -0.828125 0.28125q-0.25 0.234375 -0.25 0.703125l0 0.359375l-0.203125 -0.1875l0.96875 0q0.3125 0 0.46875 0.15625q0.15625 0.15625 0.15625 0.453125q0 0.28125 -0.15625 0.4375q-0.15625 0.15625 -0.46875 0.15625l-0.765625 0l0 3.3125q0 0.8125 -0.796875 0.8125zm5.2552185 0.03125q-0.84375 0 -1.46875 -0.328125q-0.625 -0.34375 -0.96875 -0.953125q-0.34375 -0.625 -0.34375 -1.46875q0 -0.625 0.1875 -1.125q0.203125 -0.5 0.5625 -0.859375q0.375 -0.359375 0.875 -0.546875q0.515625 -0.1875 1.15625 -0.1875q0.828125 0 1.453125 0.34375q0.625 0.328125 0.96875 0.9375q0.359375 0.59375 0.359375 1.4375q0 0.640625 -0.203125 1.140625q-0.203125 0.5 -0.5625 0.875q-0.359375 0.359375 -0.875 0.546875q-0.515625 0.1875 -1.140625 0.1875zm0 -1.21875q0.34375 0 0.59375 -0.15625q0.265625 -0.171875 0.40625 -0.5q0.15625 -0.34375 0.15625 -0.875q0 -0.78125 -0.328125 -1.140625q-0.3125 -0.375 -0.828125 -0.375q-0.34375 0 -0.609375 0.171875q-0.265625 0.15625 -0.40625 0.5q-0.140625 0.328125 -0.140625 0.84375q0 0.78125 0.3125 1.15625q0.328125 0.375 0.84375 0.375zm5.6828613 1.21875q-0.65625 0 -1.09375 -0.25q-0.4375 -0.25 -0.65625 -0.734375q-0.203125 -0.5 -0.203125 -1.234375l0 -2.40625q0 -0.40625 0.203125 -0.609375q0.21875 -0.203125 0.59375 -0.203125q0.390625 0 0.59375 0.203125q0.21875 0.203125 0.21875 0.609375l0 2.4375q0 0.46875 0.1875 0.703125q0.203125 0.234375 0.609375 0.234375q0.46875 0 0.75 -0.328125q0.296875 -0.328125 0.296875 -0.859375l0 -2.1875q0 -0.40625 0.203125 -0.609375q0.21875 -0.203125 0.59375 -0.203125q0.40625 0 0.609375 0.203125q0.203125 0.203125 0.203125 0.609375l0 3.78125q0 0.8125 -0.78125 0.8125q-0.375 0 -0.578125 -0.203125q-0.203125 -0.21875 -0.203125 -0.609375l0 -0.71875l0.15625 0.421875q-0.234375 0.53125 -0.671875 0.84375q-0.4375 0.296875 -1.03125 0.296875zm5.1934814 -0.03125q-0.40625 0 -0.625 -0.203125q-0.203125 -0.21875 -0.203125 -0.609375l0 -3.78125q0 -0.40625 0.203125 -0.609375q0.203125 -0.203125 0.578125 -0.203125q0.390625 0 0.578125 0.203125q0.203125 0.203125 0.203125 0.609375l0 0.546875l-0.09375 0q0.125 -0.640625 0.5625 -0.984375q0.4375 -0.359375 1.125 -0.40625q0.265625 -0.015625 0.40625 0.140625q0.15625 0.15625 0.15625 0.5q0.03125 0.328125 -0.125 0.53125q-0.15625 0.1875 -0.515625 0.234375l-0.25 0.015625q-0.609375 0.046875 -0.90625 0.359375q-0.28125 0.296875 -0.28125 0.859375l0 1.984375q0 0.390625 -0.21875 0.609375q-0.203125 0.203125 -0.59375 0.203125zm9.754181 0.03125q-0.625 0 -1.109375 -0.3125q-0.484375 -0.328125 -0.640625 -0.84375l0.109375 -0.359375l0 0.671875q0 0.390625 -0.203125 0.609375q-0.203125 0.203125 -0.578125 0.203125q-0.390625 0 -0.59375 -0.203125q-0.203125 -0.21875 -0.203125 -0.609375l0 -6.0625q0 -0.40625 0.203125 -0.609375q0.203125 -0.21875 0.59375 -0.21875q0.390625 0 0.59375 0.21875q0.21875 0.203125 0.21875 0.609375l0 2.515625l-0.140625 0q0.171875 -0.46875 0.65625 -0.765625q0.484375 -0.3125 1.09375 -0.3125q0.703125 0 1.203125 0.34375q0.515625 0.328125 0.796875 0.9375q0.296875 0.59375 0.296875 1.4375q0 0.84375 -0.296875 1.46875q-0.28125 0.609375 -0.796875 0.953125q-0.515625 0.328125 -1.203125 0.328125zm-0.46875 -1.21875q0.328125 0 0.59375 -0.15625q0.265625 -0.171875 0.40625 -0.5q0.140625 -0.34375 0.140625 -0.875q0 -0.78125 -0.328125 -1.140625q-0.3125 -0.375 -0.8125 -0.375q-0.34375 0 -0.609375 0.171875q-0.265625 0.15625 -0.421875 0.5q-0.140625 0.328125 -0.140625 0.84375q0 0.78125 0.3125 1.15625q0.328125 0.375 0.859375 0.375zm4.5472717 1.171875q-0.390625 0 -0.59375 -0.21875q-0.203125 -0.234375 -0.203125 -0.640625l0 -3.65625q0 -0.421875 0.203125 -0.640625q0.203125 -0.234375 0.59375 -0.234375q0.390625 0 0.59375 0.234375q0.21875 0.21875 0.21875 0.640625l0 3.65625q0 0.40625 -0.203125 0.640625q-0.203125 0.21875 -0.609375 0.21875zm0 -6.265625q-0.4375 0 -0.6875 -0.203125q-0.234375 -0.21875 -0.234375 -0.59375q0 -0.40625 0.234375 -0.609375q0.25 -0.203125 0.6875 -0.203125q0.453125 0 0.6875 0.203125q0.234375 0.203125 0.234375 0.609375q0 0.375 -0.234375 0.59375q-0.234375 0.203125 -0.6875 0.203125zm4.621521 6.3125q-0.734375 0 -1.234375 -0.25q-0.5 -0.25 -0.734375 -0.71875q-0.234375 -0.46875 -0.234375 -1.1875l0 -2.0l-0.453125 0q-0.296875 0 -0.46875 -0.15625q-0.15625 -0.15625 -0.15625 -0.4375q0 -0.296875 0.15625 -0.453125q0.171875 -0.15625 0.46875 -0.15625l0.453125 0l0 -0.8125q0 -0.40625 0.203125 -0.609375q0.21875 -0.203125 0.609375 -0.203125q0.390625 0 0.59375 0.203125q0.203125 0.203125 0.203125 0.609375l0 0.8125l1.015625 0q0.296875 0 0.453125 0.15625q0.15625 0.15625 0.15625 0.453125q0 0.28125 -0.15625 0.4375q-0.15625 0.15625 -0.453125 0.15625l-1.015625 0l0 1.9375q0 0.453125 0.203125 0.6875q0.203125 0.21875 0.671875 0.21875q0.15625 0 0.296875 -0.03125q0.140625 -0.03125 0.25 -0.046875q0.15625 -0.015625 0.25 0.09375q0.09375 0.09375 0.09375 0.4375q0 0.25 -0.09375 0.453125q-0.078125 0.1875 -0.296875 0.265625q-0.125 0.0625 -0.375 0.09375q-0.234375 0.046875 -0.40625 0.046875zm3.7426758 0q-0.46875 0 -0.96875 -0.09375q-0.5 -0.078125 -0.90625 -0.28125q-0.203125 -0.109375 -0.296875 -0.265625q-0.09375 -0.171875 -0.078125 -0.34375q0.015625 -0.171875 0.109375 -0.3125q0.109375 -0.140625 0.265625 -0.1875q0.171875 -0.046875 0.375 0.03125q0.4375 0.1875 0.796875 0.265625q0.359375 0.078125 0.703125 0.078125q0.46875 0 0.671875 -0.140625q0.203125 -0.15625 0.203125 -0.390625q0 -0.203125 -0.140625 -0.3125q-0.125 -0.109375 -0.390625 -0.15625l-1.125 -0.203125q-0.65625 -0.109375 -1.015625 -0.46875q-0.359375 -0.375 -0.359375 -0.953125q0 -0.53125 0.296875 -0.921875q0.296875 -0.390625 0.828125 -0.59375q0.53125 -0.21875 1.203125 -0.21875q0.46875 0 0.875 0.09375q0.40625 0.078125 0.78125 0.28125q0.1875 0.09375 0.265625 0.25q0.09375 0.15625 0.0625 0.328125q-0.03125 0.171875 -0.140625 0.3125q-0.09375 0.140625 -0.265625 0.1875q-0.171875 0.03125 -0.375 -0.046875q-0.34375 -0.171875 -0.640625 -0.234375q-0.28125 -0.0625 -0.546875 -0.0625q-0.484375 0 -0.703125 0.15625q-0.203125 0.140625 -0.203125 0.375q0 0.1875 0.125 0.3125q0.125 0.125 0.375 0.15625l1.125 0.203125q0.6875 0.125 1.046875 0.46875q0.359375 0.34375 0.359375 0.9375q0 0.8125 -0.640625 1.28125q-0.625 0.46875 -1.671875 0.46875zm9.434814 0q-0.625 0 -1.109375 -0.3125q-0.484375 -0.328125 -0.640625 -0.84375l0.109375 -0.359375l0 0.671875q0 0.390625 -0.203125 0.609375q-0.203125 0.203125 -0.578125 0.203125q-0.390625 0 -0.59375 -0.203125q-0.203125 -0.21875 -0.203125 -0.609375l0 -6.0625q0 -0.40625 0.203125 -0.609375q0.203125 -0.21875 0.59375 -0.21875q0.390625 0 0.59375 0.21875q0.21875 0.203125 0.21875 0.609375l0 2.515625l-0.140625 0q0.171875 -0.46875 0.65625 -0.765625q0.484375 -0.3125 1.09375 -0.3125q0.703125 0 1.203125 0.34375q0.515625 0.328125 0.796875 0.9375q0.296875 0.59375 0.296875 1.4375q0 0.84375 -0.296875 1.46875q-0.28125 0.609375 -0.796875 0.953125q-0.515625 0.328125 -1.203125 0.328125zm-0.46875 -1.21875q0.328125 0 0.59375 -0.15625q0.265625 -0.171875 0.40625 -0.5q0.140625 -0.34375 0.140625 -0.875q0 -0.78125 -0.328125 -1.140625q-0.3125 -0.375 -0.8125 -0.375q-0.34375 0 -0.609375 0.171875q-0.265625 0.15625 -0.421875 0.5q-0.140625 0.328125 -0.140625 0.84375q0 0.78125 0.3125 1.15625q0.328125 0.375 0.859375 0.375zm4.5472717 1.171875q-0.390625 0 -0.59375 -0.21875q-0.203125 -0.234375 -0.203125 -0.640625l0 -3.65625q0 -0.421875 0.203125 -0.640625q0.203125 -0.234375 0.59375 -0.234375q0.390625 0 0.59375 0.234375q0.21875 0.21875 0.21875 0.640625l0 3.65625q0 0.40625 -0.203125 0.640625q-0.203125 0.21875 -0.609375 0.21875zm0 -6.265625q-0.4375 0 -0.6875 -0.203125q-0.234375 -0.21875 -0.234375 -0.59375q0 -0.40625 0.234375 -0.609375q0.25 -0.203125 0.6875 -0.203125q0.453125 0 0.6875 0.203125q0.234375 0.203125 0.234375 0.609375q0 0.375 -0.234375 0.59375q-0.234375 0.203125 -0.6875 0.203125zm2.855896 6.28125q-0.390625 0 -0.59375 -0.203125q-0.203125 -0.21875 -0.203125 -0.609375l0 -3.78125q0 -0.40625 0.203125 -0.609375q0.203125 -0.203125 0.578125 -0.203125q0.390625 0 0.578125 0.203125q0.203125 0.203125 0.203125 0.609375l0 0.59375l-0.109375 -0.34375q0.25 -0.53125 0.734375 -0.8125q0.484375 -0.28125 1.09375 -0.28125q0.640625 0 1.03125 0.25q0.40625 0.234375 0.609375 0.71875q0.203125 0.484375 0.203125 1.234375l0 2.421875q0 0.390625 -0.203125 0.609375q-0.203125 0.203125 -0.609375 0.203125q-0.375 0 -0.59375 -0.203125q-0.203125 -0.21875 -0.203125 -0.609375l0 -2.34375q0 -0.546875 -0.203125 -0.78125q-0.1875 -0.25 -0.59375 -0.25q-0.515625 0 -0.8125 0.328125q-0.296875 0.3125 -0.296875 0.84375l0 2.203125q0 0.8125 -0.8125 0.8125zm7.3092957 0.03125q-0.578125 0 -1.046875 -0.21875q-0.453125 -0.234375 -0.703125 -0.609375q-0.25 -0.390625 -0.25 -0.875q0 -0.578125 0.296875 -0.90625q0.296875 -0.34375 0.96875 -0.484375q0.671875 -0.140625 1.78125 -0.140625l0.5625 0l0 0.828125l-0.5625 0q-0.53125 0 -0.875 0.0625q-0.328125 0.0625 -0.484375 0.203125q-0.140625 0.125 -0.140625 0.375q0 0.296875 0.203125 0.5q0.21875 0.1875 0.609375 0.1875q0.3125 0 0.546875 -0.140625q0.234375 -0.15625 0.375 -0.40625q0.140625 -0.25 0.140625 -0.5625l0 -1.234375q0 -0.46875 -0.21875 -0.65625q-0.203125 -0.203125 -0.71875 -0.203125q-0.28125 0 -0.625 0.078125q-0.328125 0.0625 -0.734375 0.21875q-0.234375 0.109375 -0.421875 0.046875q-0.171875 -0.0625 -0.28125 -0.203125q-0.09375 -0.15625 -0.09375 -0.34375q0 -0.1875 0.109375 -0.359375q0.109375 -0.1875 0.359375 -0.265625q0.5 -0.203125 0.9375 -0.28125q0.4375 -0.078125 0.8125 -0.078125q0.828125 0 1.34375 0.25q0.53125 0.234375 0.796875 0.734375q0.265625 0.484375 0.265625 1.265625l0 2.375q0 0.390625 -0.1875 0.609375q-0.1875 0.203125 -0.546875 0.203125q-0.375 0 -0.578125 -0.203125q-0.1875 -0.21875 -0.1875 -0.609375l0 -0.40625l0.078125 0.0625q-0.0625 0.375 -0.28125 0.640625q-0.203125 0.25 -0.53125 0.40625q-0.3125 0.140625 -0.71875 0.140625zm4.9980774 -0.03125q-0.40625 0 -0.625 -0.203125q-0.203125 -0.21875 -0.203125 -0.609375l0 -3.78125q0 -0.40625 0.203125 -0.609375q0.203125 -0.203125 0.578125 -0.203125q0.390625 0 0.578125 0.203125q0.203125 0.203125 0.203125 0.609375l0 0.546875l-0.09375 0q0.125 -0.640625 0.5625 -0.984375q0.4375 -0.359375 1.125 -0.40625q0.265625 -0.015625 0.40625 0.140625q0.15625 0.15625 0.15625 0.5q0.03125 0.328125 -0.125 0.53125q-0.15625 0.1875 -0.515625 0.234375l-0.25 0.015625q-0.609375 0.046875 -0.90625 0.359375q-0.28125 0.296875 -0.28125 0.859375l0 1.984375q0 0.390625 -0.21875 0.609375q-0.203125 0.203125 -0.59375 0.203125zm5.3041687 1.921875q-0.28125 0 -0.46875 -0.15625q-0.171875 -0.140625 -0.203125 -0.390625q-0.03125 -0.234375 0.078125 -0.5l0.71875 -1.578125l0 0.65625l-1.890625 -4.3125q-0.09375 -0.28125 -0.0625 -0.515625q0.03125 -0.25 0.234375 -0.390625q0.203125 -0.140625 0.546875 -0.140625q0.296875 0 0.46875 0.140625q0.171875 0.125 0.328125 0.5l1.25 3.1875l-0.34375 0l1.296875 -3.203125q0.15625 -0.359375 0.34375 -0.484375q0.1875 -0.140625 0.5 -0.140625q0.28125 0 0.4375 0.140625q0.171875 0.140625 0.203125 0.375q0.046875 0.234375 -0.078125 0.515625l-2.5 5.671875q-0.171875 0.375 -0.375 0.5q-0.1875 0.125 -0.484375 0.125zm8.027985 -1.921875q-0.390625 0 -0.59375 -0.203125q-0.203125 -0.21875 -0.203125 -0.609375l0 -3.78125q0 -0.40625 0.203125 -0.609375q0.203125 -0.203125 0.578125 -0.203125q0.390625 0 0.578125 0.203125q0.203125 0.203125 0.203125 0.609375l0 0.59375l-0.109375 -0.34375q0.25 -0.53125 0.734375 -0.8125q0.484375 -0.28125 1.09375 -0.28125q0.640625 0 1.03125 0.25q0.40625 0.234375 0.609375 0.71875q0.203125 0.484375 0.203125 1.234375l0 2.421875q0 0.390625 -0.203125 0.609375q-0.203125 0.203125 -0.609375 0.203125q-0.375 0 -0.59375 -0.203125q-0.203125 -0.21875 -0.203125 -0.609375l0 -2.34375q0 -0.546875 -0.203125 -0.78125q-0.1875 -0.25 -0.59375 -0.25q-0.515625 0 -0.8125 0.328125q-0.296875 0.3125 -0.296875 0.84375l0 2.203125q0 0.8125 -0.8125 0.8125zm7.465515 0.03125q-0.65625 0 -1.09375 -0.25q-0.4375 -0.25 -0.65625 -0.734375q-0.203125 -0.5 -0.203125 -1.234375l0 -2.40625q0 -0.40625 0.203125 -0.609375q0.21875 -0.203125 0.59375 -0.203125q0.390625 0 0.59375 0.203125q0.21875 0.203125 0.21875 0.609375l0 2.4375q0 0.46875 0.1875 0.703125q0.203125 0.234375 0.609375 0.234375q0.46875 0 0.75 -0.328125q0.296875 -0.328125 0.296875 -0.859375l0 -2.1875q0 -0.40625 0.203125 -0.609375q0.21875 -0.203125 0.59375 -0.203125q0.40625 0 0.609375 0.203125q0.203125 0.203125 0.203125 0.609375l0 3.78125q0 0.8125 -0.78125 0.8125q-0.375 0 -0.578125 -0.203125q-0.203125 -0.21875 -0.203125 -0.609375l0 -0.71875l0.15625 0.421875q-0.234375 0.53125 -0.671875 0.84375q-0.4375 0.296875 -1.03125 0.296875zm5.193512 -0.03125q-0.390625 0 -0.609375 -0.203125q-0.203125 -0.21875 -0.203125 -0.609375l0 -3.78125q0 -0.40625 0.203125 -0.609375q0.21875 -0.203125 0.578125 -0.203125q0.390625 0 0.59375 0.203125q0.203125 0.203125 0.203125 0.609375l0 0.671875l-0.125 -0.421875q0.21875 -0.484375 0.65625 -0.78125q0.453125 -0.3125 1.0625 -0.3125q0.609375 0 1.015625 0.296875q0.40625 0.28125 0.578125 0.875l-0.15625 0q0.234375 -0.53125 0.71875 -0.84375q0.484375 -0.328125 1.125 -0.328125q0.59375 0 0.984375 0.25q0.390625 0.234375 0.578125 0.71875q0.203125 0.484375 0.203125 1.234375l0 2.421875q0 0.390625 -0.21875 0.609375q-0.203125 0.203125 -0.578125 0.203125q-0.40625 0 -0.609375 -0.203125q-0.203125 -0.21875 -0.203125 -0.609375l0 -2.375q0 -0.515625 -0.171875 -0.75q-0.15625 -0.25 -0.5625 -0.25q-0.453125 0 -0.71875 0.328125q-0.25 0.3125 -0.25 0.90625l0 2.140625q0 0.390625 -0.203125 0.609375q-0.203125 0.203125 -0.59375 0.203125q-0.375 0 -0.59375 -0.203125q-0.21875 -0.21875 -0.21875 -0.609375l0 -2.375q0 -0.515625 -0.171875 -0.75q-0.15625 -0.25 -0.546875 -0.25q-0.453125 0 -0.71875 0.328125q-0.25 0.3125 -0.25 0.90625l0 2.140625q0 0.8125 -0.796875 0.8125zm11.864105 0.03125q-0.625 0 -1.109375 -0.3125q-0.484375 -0.328125 -0.640625 -0.84375l0.109375 -0.359375l0 0.671875q0 0.390625 -0.203125 0.609375q-0.203125 0.203125 -0.578125 0.203125q-0.390625 0 -0.59375 -0.203125q-0.203125 -0.21875 -0.203125 -0.609375l0 -6.0625q0 -0.40625 0.203125 -0.609375q0.203125 -0.21875 0.59375 -0.21875q0.390625 0 0.59375 0.21875q0.21875 0.203125 0.21875 0.609375l0 2.515625l-0.140625 0q0.171875 -0.46875 0.65625 -0.765625q0.484375 -0.3125 1.09375 -0.3125q0.703125 0 1.203125 0.34375q0.515625 0.328125 0.796875 0.9375q0.296875 0.59375 0.296875 1.4375q0 0.84375 -0.296875 1.46875q-0.28125 0.609375 -0.796875 0.953125q-0.515625 0.328125 -1.203125 0.328125zm-0.46875 -1.21875q0.328125 0 0.59375 -0.15625q0.265625 -0.171875 0.40625 -0.5q0.140625 -0.34375 0.140625 -0.875q0 -0.78125 -0.328125 -1.140625q-0.3125 -0.375 -0.8125 -0.375q-0.34375 0 -0.609375 0.171875q-0.265625 0.15625 -0.421875 0.5q-0.140625 0.328125 -0.140625 0.84375q0 0.78125 0.3125 1.15625q0.328125 0.375 0.859375 0.375zm6.4535217 1.21875q-0.921875 0 -1.59375 -0.328125q-0.65625 -0.34375 -1.015625 -0.953125q-0.359375 -0.625 -0.359375 -1.453125q0 -0.8125 0.34375 -1.421875q0.34375 -0.609375 0.953125 -0.953125q0.609375 -0.359375 1.390625 -0.359375q0.5625 0 1.015625 0.1875q0.46875 0.1875 0.796875 0.546875q0.328125 0.34375 0.5 0.84375q0.171875 0.484375 0.171875 1.09375q0 0.203125 -0.125 0.3125q-0.125 0.09375 -0.375 0.09375l-3.34375 0l0 -0.828125l2.6875 0l-0.171875 0.140625q0 -0.4375 -0.140625 -0.71875q-0.125 -0.296875 -0.359375 -0.4375q-0.234375 -0.15625 -0.59375 -0.15625q-0.390625 0 -0.671875 0.1875q-0.28125 0.171875 -0.4375 0.515625q-0.140625 0.328125 -0.140625 0.8125l0 0.078125q0 0.8125 0.375 1.203125q0.390625 0.375 1.140625 0.375q0.25 0 0.578125 -0.0625q0.328125 -0.0625 0.625 -0.203125q0.234375 -0.109375 0.421875 -0.0625q0.203125 0.03125 0.296875 0.171875q0.109375 0.125 0.125 0.3125q0.03125 0.1875 -0.078125 0.359375q-0.09375 0.171875 -0.3125 0.296875q-0.359375 0.203125 -0.8125 0.296875q-0.453125 0.109375 -0.890625 0.109375zm3.9753418 -0.03125q-0.40625 0 -0.625 -0.203125q-0.203125 -0.21875 -0.203125 -0.609375l0 -3.78125q0 -0.40625 0.203125 -0.609375q0.203125 -0.203125 0.578125 -0.203125q0.390625 0 0.578125 0.203125q0.203125 0.203125 0.203125 0.609375l0 0.546875l-0.09375 0q0.125 -0.640625 0.5625 -0.984375q0.4375 -0.359375 1.125 -0.40625q0.265625 -0.015625 0.40625 0.140625q0.15625 0.15625 0.15625 0.5q0.03125 0.328125 -0.125 0.53125q-0.15625 0.1875 -0.515625 0.234375l-0.25 0.015625q-0.609375 0.046875 -0.90625 0.359375q-0.28125 0.296875 -0.28125 0.859375l0 1.984375q0 0.390625 -0.21875 0.609375q-0.203125 0.203125 -0.59375 0.203125z" fill-rule="nonzero"/></g></svg>